<svg width="217" height="43" viewBox="0 0 217 43" fill="none" xmlns="http://www.w3.org/2000/svg">
<g clip-path="url(#clip0_1299_424)">
<path d="M20.5562 23.2158H20.0562V23.7158V42.2677H10.6737V0.681152H20.0562V15.3523V15.8523H20.5562H29.9011H30.4011V15.3523V0.681152H39.6484V42.2677H30.4011V23.7158V23.2158H29.9011H20.5562Z" fill="#858585" stroke="#1F1F1F" stroke-miterlimit="10"/>
<path d="M7.78476 20.9557L0.869202 41.3749L5.03753 42.7677L11.9531 22.3485C12.8445 22.236 14.7697 21.8443 15.9095 20.321C17.6704 17.9745 17.0055 13.7057 13.6299 10.5503C13.0746 12.0554 12.0846 13.9124 10.2032 15.0621C8.40215 16.1502 6.76186 16.0123 6.26867 17.133C5.93257 17.9019 6.20656 19.0843 7.78476 20.9557Z" fill="#0A5D00"/>
</g>
<path d="M48.6412 32.5V12.94H53.0512V20.47H59.8012V12.94H64.2412V32.5H59.8012V24.34H53.0512V32.5H48.6412ZM72.2461 32.86C70.8861 32.86 69.8061 32.43 69.0061 31.57C68.2061 30.69 67.8061 29.62 67.8061 28.36C67.8061 26.8 68.4661 25.58 69.7861 24.7C71.1061 23.82 73.2361 23.23 76.1761 22.93C76.1361 22.27 75.9361 21.75 75.5761 21.37C75.2361 20.97 74.6561 20.77 73.8361 20.77C73.2161 20.77 72.5861 20.89 71.9461 21.13C71.3061 21.37 70.6261 21.7 69.9061 22.12L68.3161 19.21C69.2561 18.63 70.2561 18.16 71.3161 17.8C72.3961 17.44 73.5161 17.26 74.6761 17.26C76.5761 17.26 78.0361 17.81 79.0561 18.91C80.0761 20.01 80.5861 21.7 80.5861 23.98V32.5H76.9861L76.6861 30.97H76.5661C75.9461 31.53 75.2761 31.99 74.5561 32.35C73.8561 32.69 73.0861 32.86 72.2461 32.86ZM73.7461 29.44C74.2461 29.44 74.6761 29.33 75.0361 29.11C75.4161 28.87 75.7961 28.56 76.1761 28.18V25.57C74.6161 25.77 73.5361 26.09 72.9361 26.53C72.3361 26.95 72.0361 27.45 72.0361 28.03C72.0361 28.51 72.1861 28.87 72.4861 29.11C72.8061 29.33 73.2261 29.44 73.7461 29.44ZM90.7964 32.86C89.4164 32.86 88.1664 32.56 87.0464 31.96C85.9464 31.34 85.0664 30.45 84.4064 29.29C83.7664 28.11 83.4464 26.7 83.4464 25.06C83.4464 23.4 83.8064 21.99 84.5264 20.83C85.2464 19.67 86.1964 18.79 87.3764 18.19C88.5564 17.57 89.8264 17.26 91.1864 17.26C92.1064 17.26 92.9164 17.41 93.6164 17.71C94.3364 18.01 94.9764 18.39 95.5364 18.85L93.4664 21.7C92.7664 21.12 92.0964 20.83 91.4564 20.83C90.3964 20.83 89.5464 21.21 88.9064 21.97C88.2864 22.73 87.9764 23.76 87.9764 25.06C87.9764 26.34 88.2864 27.37 88.9064 28.15C89.5464 28.91 90.3464 29.29 91.3064 29.29C91.7864 29.29 92.2564 29.19 92.7164 28.99C93.1764 28.77 93.5964 28.51 93.9764 28.21L95.7164 31.09C94.9764 31.73 94.1764 32.19 93.3164 32.47C92.4564 32.73 91.6164 32.86 90.7964 32.86ZM98.3203 32.5V11.47H102.61V23.53H102.73L107.44 17.62H112.24L107.02 23.74L112.63 32.5H107.86L104.5 26.71L102.61 28.84V32.5H98.3203Z" fill="#1F1F1F"/>
<path d="M115.116 32.5V12.94H120.636C122.636 12.94 124.366 13.28 125.826 13.96C127.286 14.64 128.416 15.7 129.216 17.14C130.036 18.56 130.446 20.39 130.446 22.63C130.446 24.87 130.046 26.72 129.246 28.18C128.446 29.64 127.326 30.73 125.886 31.45C124.466 32.15 122.796 32.5 120.876 32.5H115.116ZM119.526 28.93H120.366C121.486 28.93 122.456 28.73 123.276 28.33C124.116 27.93 124.766 27.27 125.226 26.35C125.686 25.43 125.916 24.19 125.916 22.63C125.916 21.07 125.686 19.85 125.226 18.97C124.766 18.07 124.116 17.44 123.276 17.08C122.456 16.7 121.486 16.51 120.366 16.51H119.526V28.93ZM140.459 32.86C139.039 32.86 137.759 32.55 136.619 31.93C135.479 31.31 134.579 30.42 133.919 29.26C133.259 28.1 132.929 26.7 132.929 25.06C132.929 23.44 133.259 22.05 133.919 20.89C134.599 19.73 135.479 18.84 136.559 18.22C137.639 17.58 138.769 17.26 139.949 17.26C141.369 17.26 142.539 17.58 143.459 18.22C144.399 18.84 145.099 19.69 145.559 20.77C146.039 21.83 146.279 23.04 146.279 24.4C146.279 24.78 146.259 25.16 146.219 25.54C146.179 25.9 146.139 26.17 146.099 26.35H137.189C137.389 27.43 137.839 28.23 138.539 28.75C139.239 29.25 140.079 29.5 141.059 29.5C142.119 29.5 143.189 29.17 144.269 28.51L145.739 31.18C144.979 31.7 144.129 32.11 143.189 32.41C142.249 32.71 141.339 32.86 140.459 32.86ZM137.159 23.44H142.529C142.529 22.62 142.329 21.95 141.929 21.43C141.549 20.89 140.919 20.62 140.039 20.62C139.359 20.62 138.749 20.86 138.209 21.34C137.669 21.8 137.319 22.5 137.159 23.44ZM153.706 32.86C152.726 32.86 151.716 32.67 150.676 32.29C149.656 31.91 148.766 31.41 148.006 30.79L149.986 28.03C150.666 28.53 151.316 28.92 151.936 29.2C152.576 29.46 153.206 29.59 153.826 29.59C154.486 29.59 154.966 29.48 155.266 29.26C155.566 29.02 155.716 28.71 155.716 28.33C155.716 27.99 155.566 27.71 155.266 27.49C154.986 27.27 154.616 27.07 154.156 26.89C153.696 26.69 153.206 26.49 152.686 26.29C152.086 26.05 151.486 25.75 150.886 25.39C150.306 25.03 149.816 24.57 149.416 24.01C149.016 23.43 148.816 22.73 148.816 21.91C148.816 20.53 149.336 19.41 150.376 18.55C151.436 17.69 152.816 17.26 154.516 17.26C155.656 17.26 156.656 17.46 157.516 17.86C158.396 18.24 159.146 18.67 159.766 19.15L157.786 21.79C157.266 21.39 156.746 21.08 156.226 20.86C155.706 20.64 155.186 20.53 154.666 20.53C153.526 20.53 152.956 20.92 152.956 21.7C152.956 22.18 153.236 22.55 153.796 22.81C154.376 23.05 155.046 23.31 155.806 23.59C156.446 23.81 157.066 24.1 157.666 24.46C158.286 24.8 158.796 25.26 159.196 25.84C159.616 26.4 159.826 27.14 159.826 28.06C159.826 29.4 159.306 30.54 158.266 31.48C157.226 32.4 155.706 32.86 153.706 32.86ZM162.627 32.5V17.62H167.037V32.5H162.627ZM164.817 15.43C164.077 15.43 163.477 15.22 163.017 14.8C162.557 14.38 162.327 13.82 162.327 13.12C162.327 12.42 162.557 11.86 163.017 11.44C163.477 11.02 164.077 10.81 164.817 10.81C165.557 10.81 166.157 11.02 166.617 11.44C167.077 11.86 167.307 12.42 167.307 13.12C167.307 13.82 167.077 14.38 166.617 14.8C166.157 15.22 165.557 15.43 164.817 15.43ZM176.228 38.83C175.068 38.83 174.018 38.7 173.078 38.44C172.138 38.18 171.388 37.77 170.828 37.21C170.268 36.65 169.988 35.93 169.988 35.05C169.988 33.85 170.698 32.85 172.118 32.05V31.93C171.738 31.67 171.408 31.34 171.128 30.94C170.868 30.54 170.738 30.03 170.738 29.41C170.738 28.87 170.898 28.35 171.218 27.85C171.538 27.35 171.938 26.94 172.418 26.62V26.5C171.898 26.14 171.428 25.62 171.008 24.94C170.608 24.26 170.408 23.49 170.408 22.63C170.408 21.43 170.698 20.44 171.278 19.66C171.858 18.86 172.618 18.26 173.558 17.86C174.498 17.46 175.498 17.26 176.558 17.26C177.438 17.26 178.208 17.38 178.868 17.62H184.298V20.83H181.928C182.068 21.05 182.178 21.33 182.258 21.67C182.358 22.01 182.408 22.38 182.408 22.78C182.408 23.92 182.148 24.86 181.628 25.6C181.108 26.34 180.408 26.89 179.528 27.25C178.648 27.61 177.658 27.79 176.558 27.79C175.978 27.79 175.378 27.69 174.758 27.49C174.398 27.79 174.218 28.16 174.218 28.6C174.218 28.98 174.388 29.26 174.728 29.44C175.068 29.62 175.648 29.71 176.468 29.71H178.868C180.708 29.71 182.108 30.01 183.068 30.61C184.048 31.19 184.538 32.15 184.538 33.49C184.538 34.51 184.198 35.42 183.518 36.22C182.838 37.04 181.878 37.68 180.638 38.14C179.398 38.6 177.928 38.83 176.228 38.83ZM176.558 25.12C177.138 25.12 177.618 24.91 177.998 24.49C178.398 24.07 178.598 23.45 178.598 22.63C178.598 21.85 178.398 21.26 177.998 20.86C177.618 20.44 177.138 20.23 176.558 20.23C175.978 20.23 175.488 20.43 175.088 20.83C174.708 21.23 174.518 21.83 174.518 22.63C174.518 23.45 174.708 24.07 175.088 24.49C175.488 24.91 175.978 25.12 176.558 25.12ZM176.918 36.07C177.918 36.07 178.738 35.89 179.378 35.53C180.018 35.17 180.338 34.74 180.338 34.24C180.338 33.78 180.138 33.47 179.738 33.31C179.358 33.15 178.798 33.07 178.058 33.07H176.528C176.028 33.07 175.608 33.05 175.268 33.01C174.948 32.99 174.668 32.95 174.428 32.89C173.888 33.37 173.618 33.86 173.618 34.36C173.618 34.92 173.918 35.34 174.518 35.62C175.138 35.92 175.938 36.07 176.918 36.07ZM186.943 32.5V17.62H190.543L190.843 19.51H190.963C191.603 18.91 192.303 18.39 193.063 17.95C193.843 17.49 194.733 17.26 195.733 17.26C197.353 17.26 198.523 17.8 199.243 18.88C199.983 19.94 200.353 21.4 200.353 23.26V32.5H195.943V23.83C195.943 22.75 195.793 22.01 195.493 21.61C195.213 21.21 194.753 21.01 194.113 21.01C193.553 21.01 193.073 21.14 192.673 21.4C192.273 21.64 191.833 21.99 191.353 22.45V32.5H186.943ZM208.491 32.86C207.511 32.86 206.501 32.67 205.461 32.29C204.441 31.91 203.551 31.41 202.791 30.79L204.771 28.03C205.451 28.53 206.101 28.92 206.721 29.2C207.361 29.46 207.991 29.59 208.611 29.59C209.271 29.59 209.751 29.48 210.051 29.26C210.351 29.02 210.501 28.71 210.501 28.33C210.501 27.99 210.351 27.71 210.051 27.49C209.771 27.27 209.401 27.07 208.941 26.89C208.481 26.69 207.991 26.49 207.471 26.29C206.871 26.05 206.271 25.75 205.671 25.39C205.091 25.03 204.601 24.57 204.201 24.01C203.801 23.43 203.601 22.73 203.601 21.91C203.601 20.53 204.121 19.41 205.161 18.55C206.221 17.69 207.601 17.26 209.301 17.26C210.441 17.26 211.441 17.46 212.301 17.86C213.181 18.24 213.931 18.67 214.551 19.15L212.571 21.79C212.051 21.39 211.531 21.08 211.011 20.86C210.491 20.64 209.971 20.53 209.451 20.53C208.311 20.53 207.741 20.92 207.741 21.7C207.741 22.18 208.021 22.55 208.581 22.81C209.161 23.05 209.831 23.31 210.591 23.59C211.231 23.81 211.851 24.1 212.451 24.46C213.071 24.8 213.581 25.26 213.981 25.84C214.401 26.4 214.611 27.14 214.611 28.06C214.611 29.4 214.091 30.54 213.051 31.48C212.011 32.4 210.491 32.86 208.491 32.86Z" fill="#0A5D00"/>
<defs>
<clipPath id="clip0_1299_424">
<rect width="39.6923" height="43" fill="white" transform="translate(0.638916)"/>
</clipPath>
</defs>
</svg>
