<svg width="54" height="56" viewBox="0 0 54 56" fill="none" xmlns="http://www.w3.org/2000/svg">
<path d="M27 0C12.0897 0 0 12.4808 0 27.8733C0 43.2658 12.0897 55.7466 27 55.7466C41.9103 55.7466 54 43.2658 54 27.8733C54 12.4808 41.9103 0 27 0ZM36.9683 38.4626L32.9906 38.444L27 31.0712L21.0154 38.4378L17.0317 38.4564C16.7665 38.4564 16.5496 38.2387 16.5496 37.9587C16.5496 37.8405 16.5917 37.7285 16.6641 37.6352L24.5049 27.9915L16.6641 18.3541C16.5912 18.2629 16.5508 18.1487 16.5496 18.0305C16.5496 17.7568 16.7665 17.5328 17.0317 17.5328L21.0154 17.5515L27 24.9242L32.9846 17.5577L36.9623 17.539C37.2275 17.539 37.4444 17.7568 37.4444 18.0368C37.4444 18.155 37.4022 18.267 37.3299 18.3603L29.5011 27.9977L37.3359 37.6414C37.4083 37.7347 37.4504 37.8467 37.4504 37.9649C37.4504 38.2387 37.2335 38.4626 36.9683 38.4626Z" fill="#F5F5F5"/>
</svg>
