<svg width="40" height="43" viewBox="0 0 40 43" fill="none" xmlns="http://www.w3.org/2000/svg">
<g clip-path="url(#clip0_1382_853)">
<path d="M19.9174 23.2161H19.4174V23.7161V42.2679H10.0349V0.681396H19.4174V15.3525V15.8525H19.9174H29.2623H29.7623V15.3525V0.681396H39.0096V42.2679H29.7623V23.7161V23.2161H29.2623H19.9174Z" fill="#858585" stroke="#1F1F1F" stroke-miterlimit="10"/>
<path d="M7.14578 20.956L0.230225 41.3752L4.39856 42.7679L11.3141 22.3487C12.2055 22.2363 14.1308 21.8446 15.2706 20.3213C17.0314 17.9747 16.3665 13.7059 12.9909 10.5505C12.4357 12.0557 11.4456 13.9126 9.56421 15.0623C7.76317 16.1504 6.12288 16.0126 5.62969 17.1333C5.2936 17.9022 5.56759 19.0845 7.14578 20.956Z" fill="#0A5D00"/>
</g>
<defs>
<clipPath id="clip0_1382_853">
<rect width="39.6923" height="43" fill="white"/>
</clipPath>
</defs>
</svg>
