<svg width="121" height="292" viewBox="0 0 121 292" fill="none" xmlns="http://www.w3.org/2000/svg">
<g opacity="0.2">
<g opacity="0.89">
<path opacity="0.89" d="M146 291C226.081 291 291 226.081 291 146C291 65.9187 226.081 1 146 1C65.9187 1 1 65.9187 1 146C1 226.081 65.9187 291 146 291Z" stroke="white" stroke-width="1.45663" stroke-linecap="round" stroke-linejoin="round"/>
</g>
<g opacity="0.89">
<path opacity="0.89" d="M146 280.425C220.241 280.425 280.425 220.241 280.425 146C280.425 71.7591 220.241 11.5748 146 11.5748C71.7587 11.5748 11.5745 71.7591 11.5745 146C11.5745 220.241 71.7587 280.425 146 280.425Z" stroke="white" stroke-width="1.70146" stroke-linecap="round" stroke-linejoin="round"/>
</g>
<g opacity="0.89">
<path opacity="0.89" d="M146 269.851C214.401 269.851 269.85 214.401 269.85 146C269.85 77.5994 214.401 22.1497 146 22.1497C77.5992 22.1497 22.1494 77.5994 22.1494 146C22.1494 214.401 77.5992 269.851 146 269.851Z" stroke="white" stroke-width="1.9463" stroke-linecap="round" stroke-linejoin="round"/>
</g>
<g opacity="0.89">
<path opacity="0.89" d="M146 259.276C208.561 259.276 259.276 208.56 259.276 146C259.276 83.4394 208.561 32.7242 146 32.7242C83.4399 32.7242 32.7246 83.4394 32.7246 146C32.7246 208.56 83.4399 259.276 146 259.276Z" stroke="white" stroke-width="2.19113" stroke-linecap="round" stroke-linejoin="round"/>
</g>
<g opacity="0.89">
<path opacity="0.89" d="M146 248.701C202.72 248.701 248.701 202.72 248.701 146C248.701 89.2798 202.72 43.2991 146 43.2991C89.2801 43.2991 43.2993 89.2798 43.2993 146C43.2993 202.72 89.2801 248.701 146 248.701Z" stroke="white" stroke-width="2.43596" stroke-linecap="round" stroke-linejoin="round"/>
</g>
<g opacity="0.89">
<path opacity="0.89" d="M146 238.126C196.88 238.126 238.126 196.88 238.126 146C238.126 95.1201 196.88 53.8739 146 53.8739C95.1203 53.8739 53.874 95.1201 53.874 146C53.874 196.88 95.1203 238.126 146 238.126Z" stroke="white" stroke-width="2.68062" stroke-linecap="round" stroke-linejoin="round"/>
</g>
<g opacity="0.89">
<path opacity="0.89" d="M146 227.551C191.039 227.551 227.551 191.04 227.551 146C227.551 100.96 191.039 64.4487 146 64.4487C100.96 64.4487 64.4485 100.96 64.4485 146C64.4485 191.04 100.96 227.551 146 227.551Z" stroke="white" stroke-width="2.92545" stroke-linecap="round" stroke-linejoin="round"/>
</g>
<g opacity="0.89">
<path opacity="0.89" d="M145.999 216.977C185.199 216.977 216.976 185.199 216.976 146C216.976 106.801 185.199 75.0236 145.999 75.0236C106.8 75.0236 75.0229 106.801 75.0229 146C75.0229 185.199 106.8 216.977 145.999 216.977Z" stroke="white" stroke-width="3.17028" stroke-linecap="round" stroke-linejoin="round"/>
</g>
<g opacity="0.89">
<path opacity="0.89" d="M146 206.42C179.369 206.42 206.419 179.369 206.419 146C206.419 112.631 179.369 85.5802 146 85.5802C112.631 85.5802 85.5801 112.631 85.5801 146C85.5801 179.369 112.631 206.42 146 206.42Z" stroke="white" stroke-width="3.41512" stroke-linecap="round" stroke-linejoin="round"/>
</g>
<g opacity="0.89">
<path opacity="0.89" d="M146 195.845C173.528 195.845 195.845 173.529 195.845 146C195.845 118.471 173.528 96.1552 146 96.1552C118.471 96.1552 96.155 118.471 96.155 146C96.155 173.529 118.471 195.845 146 195.845Z" stroke="white" stroke-width="3.65995" stroke-linecap="round" stroke-linejoin="round"/>
</g>
<g opacity="0.89">
<path opacity="0.89" d="M146 185.27C167.689 185.27 185.27 167.688 185.27 146C185.27 124.312 167.689 106.73 146 106.73C124.312 106.73 106.73 124.312 106.73 146C106.73 167.688 124.312 185.27 146 185.27Z" stroke="white" stroke-width="3.90478" stroke-linecap="round" stroke-linejoin="round"/>
</g>
<g opacity="0.89">
<path opacity="0.89" d="M146 174.695C161.848 174.695 174.695 161.848 174.695 146C174.695 130.152 161.848 117.305 146 117.305C130.152 117.305 117.305 130.152 117.305 146C117.305 161.848 130.152 174.695 146 174.695Z" stroke="white" stroke-width="4.14962" stroke-linecap="round" stroke-linejoin="round"/>
</g>
</g>
</svg>
