<svg width="121" height="292" viewBox="0 0 121 292" fill="none" xmlns="http://www.w3.org/2000/svg">
<g opacity="0.2">
<g opacity="0.89">
<path opacity="0.89" d="M-25 291C55.0813 291 120 226.081 120 146C120 65.9187 55.0813 1 -25 1C-105.081 1 -170 65.9187 -170 146C-170 226.081 -105.081 291 -25 291Z" stroke="white" stroke-width="1.45663" stroke-linecap="round" stroke-linejoin="round"/>
</g>
<g opacity="0.89">
<path opacity="0.89" d="M-25.0001 280.425C49.241 280.425 109.425 220.241 109.425 146C109.425 71.7591 49.241 11.5748 -25.0001 11.5748C-99.2411 11.5748 -159.425 71.7591 -159.425 146C-159.425 220.241 -99.2411 280.425 -25.0001 280.425Z" stroke="white" stroke-width="1.70146" stroke-linecap="round" stroke-linejoin="round"/>
</g>
<g opacity="0.89">
<path opacity="0.89" d="M-25.0001 269.851C43.4006 269.851 98.8503 214.401 98.8503 146C98.8503 77.5994 43.4006 22.1497 -25.0001 22.1497C-93.4008 22.1497 -148.851 77.5994 -148.851 146C-148.851 214.401 -93.4008 269.851 -25.0001 269.851Z" stroke="white" stroke-width="1.9463" stroke-linecap="round" stroke-linejoin="round"/>
</g>
<g opacity="0.89">
<path opacity="0.89" d="M-24.9997 259.276C37.5607 259.276 88.2759 208.56 88.2759 146C88.2759 83.4396 37.5607 32.7244 -24.9997 32.7244C-87.5601 32.7244 -138.275 83.4396 -138.275 146C-138.275 208.56 -87.5601 259.276 -24.9997 259.276Z" stroke="white" stroke-width="2.19113" stroke-linecap="round" stroke-linejoin="round"/>
</g>
<g opacity="0.89">
<path opacity="0.89" d="M-24.9998 248.701C31.7204 248.701 77.7011 202.72 77.7011 146C77.7011 89.2798 31.7204 43.2991 -24.9998 43.2991C-81.7199 43.2991 -127.701 89.2798 -127.701 146C-127.701 202.72 -81.7199 248.701 -24.9998 248.701Z" stroke="white" stroke-width="2.43596" stroke-linecap="round" stroke-linejoin="round"/>
</g>
<g opacity="0.89">
<path opacity="0.89" d="M-24.9999 238.126C25.8799 238.126 67.1262 196.88 67.1262 146C67.1262 95.1203 25.8799 53.874 -24.9999 53.874C-75.8797 53.874 -117.126 95.1203 -117.126 146C-117.126 196.88 -75.8797 238.126 -24.9999 238.126Z" stroke="white" stroke-width="2.68062" stroke-linecap="round" stroke-linejoin="round"/>
</g>
<g opacity="0.89">
<path opacity="0.89" d="M-25 227.551C20.0396 227.551 56.5513 191.04 56.5513 146C56.5513 100.96 20.0396 64.4487 -25 64.4487C-70.0395 64.4487 -106.551 100.96 -106.551 146C-106.551 191.04 -70.0395 227.551 -25 227.551Z" stroke="white" stroke-width="2.92545" stroke-linecap="round" stroke-linejoin="round"/>
</g>
<g opacity="0.89">
<path opacity="0.89" d="M-25.0005 216.977C14.1987 216.977 45.976 185.199 45.976 146C45.976 106.801 14.1987 75.0236 -25.0005 75.0236C-64.1998 75.0236 -95.9771 106.801 -95.9771 146C-95.9771 185.199 -64.1998 216.977 -25.0005 216.977Z" stroke="white" stroke-width="3.17028" stroke-linecap="round" stroke-linejoin="round"/>
</g>
<g opacity="0.89">
<path opacity="0.89" d="M-25.0002 206.42C8.36863 206.42 35.4194 179.369 35.4194 146C35.4194 112.631 8.36863 85.5803 -25.0002 85.5803C-58.3691 85.5803 -85.4199 112.631 -85.4199 146C-85.4199 179.369 -58.3691 206.42 -25.0002 206.42Z" stroke="white" stroke-width="3.41512" stroke-linecap="round" stroke-linejoin="round"/>
</g>
<g opacity="0.89">
<path opacity="0.89" d="M-25.0003 195.845C2.52821 195.845 24.8445 173.528 24.8445 146C24.8445 118.471 2.52821 96.155 -25.0003 96.155C-52.5289 96.155 -74.8452 118.471 -74.8452 146C-74.8452 173.528 -52.5289 195.845 -25.0003 195.845Z" stroke="white" stroke-width="3.65995" stroke-linecap="round" stroke-linejoin="round"/>
</g>
<g opacity="0.89">
<path opacity="0.89" d="M-24.9994 185.27C-3.31116 185.27 14.2707 167.688 14.2707 146C14.2707 124.312 -3.31116 106.73 -24.9994 106.73C-46.6877 106.73 -64.2695 124.312 -64.2695 146C-64.2695 167.688 -46.6877 185.27 -24.9994 185.27Z" stroke="white" stroke-width="3.90478" stroke-linecap="round" stroke-linejoin="round"/>
</g>
<g opacity="0.89">
<path opacity="0.89" d="M-25 174.695C-9.15201 174.695 3.69528 161.848 3.69528 146C3.69528 130.152 -9.15201 117.305 -25 117.305C-40.848 117.305 -53.6953 130.152 -53.6953 146C-53.6953 161.848 -40.848 174.695 -25 174.695Z" stroke="white" stroke-width="4.14962" stroke-linecap="round" stroke-linejoin="round"/>
</g>
</g>
</svg>
