<svg width="100" height="100" viewBox="0 0 100 100" fill="none" xmlns="http://www.w3.org/2000/svg">
<path d="M85.2313 14.7688H85.225L95.7 16.8625C96.2625 16.975 96.725 17.3875 96.8875 17.9438C96.9696 18.214 96.9769 18.5014 96.9086 18.7754C96.8404 19.0494 96.6992 19.2998 96.5 19.5L87.9188 28.0875C86.8921 29.1123 85.5006 29.6878 84.05 29.6875H76.9375L59.0625 47.5688C59.4035 48.8564 59.4662 50.2019 59.2465 51.5157C59.0267 52.8295 58.5295 54.0813 57.788 55.1879C57.0464 56.2944 56.0776 57.2303 54.9461 57.933C53.8145 58.6358 52.5462 59.0893 51.2256 59.2635C49.905 59.4376 48.5624 59.3283 47.2874 58.9429C46.0123 58.5575 44.834 57.9048 43.831 57.0283C42.828 56.1518 42.0233 55.0716 41.4705 53.8597C40.9176 52.6478 40.6294 51.332 40.625 50C40.6259 48.5618 40.9575 47.1431 41.5942 45.8535C42.2308 44.5639 43.1554 43.4379 44.2965 42.5626C45.4376 41.6873 46.7647 41.086 48.1752 40.8053C49.5858 40.5246 51.0419 40.572 52.4312 40.9438L70.3125 23.0563V15.95C70.3125 14.5 70.8875 13.1063 71.9125 12.0813L80.5 3.49376C80.7002 3.29457 80.9506 3.15335 81.2246 3.08511C81.4986 3.01688 81.786 3.02419 82.0562 3.10626C82.6125 3.26876 83.025 3.73126 83.1375 4.29376L85.2313 14.7688Z" fill="#0A5D00"/>
<path d="M12.4998 50C12.5063 55.3622 13.6626 60.6607 15.8909 65.5381C18.1192 70.4155 21.3675 74.7582 25.4169 78.2734C29.4662 81.7886 34.2224 84.3945 39.3644 85.9153C44.5065 87.4361 49.915 87.8364 55.2249 87.0892C60.5349 86.3421 65.6228 84.4648 70.1456 81.5841C74.6683 78.7034 78.5207 74.8862 81.4428 70.3901C84.3648 65.894 86.2887 60.8234 87.0845 55.5205C87.8803 50.2177 87.5296 44.8058 86.0561 39.65C85.8492 39.0476 85.7671 38.4095 85.8147 37.7743C85.8623 37.1392 86.0387 36.5205 86.3331 35.9557C86.6275 35.3909 87.0337 34.892 87.5271 34.4892C88.0205 34.0864 88.5907 33.7883 89.2029 33.6129C89.8152 33.4376 90.4568 33.3887 91.0886 33.4692C91.7203 33.5497 92.3291 33.7579 92.8779 34.0812C93.4266 34.4045 93.9038 34.8361 94.2804 35.3497C94.6571 35.8633 94.9252 36.4482 95.0686 37.0687C97.9219 47.0533 97.3799 57.7025 93.5277 67.3458C89.6754 76.9891 82.7309 85.0807 73.7837 90.3513C64.8364 95.6218 54.3926 97.773 44.0908 96.4675C33.7889 95.1619 24.212 90.4734 16.8623 83.1375C9.52073 75.7897 4.82718 66.2118 3.51861 55.9076C2.21004 45.6033 4.36054 35.1563 9.63248 26.2067C14.9044 17.257 22.9993 10.3116 32.6461 6.46085C42.2929 2.61009 52.9454 2.07205 62.9311 4.93122C64.1201 5.27879 65.1232 6.0829 65.7211 7.1678C66.3191 8.2527 66.4633 9.53018 66.1222 10.7211C65.7811 11.912 64.9825 12.9194 63.9009 13.5233C62.8193 14.1271 61.5426 14.2783 60.3498 13.9437C54.766 12.3416 48.8863 12.0585 43.1743 13.1166C37.4623 14.1748 32.0742 16.5453 27.4348 20.0412C22.7953 23.5372 19.0314 28.063 16.4396 33.262C13.8478 38.4609 12.4991 44.1908 12.4998 50Z" fill="#0A5D00"/>
<path d="M31.2501 50.0001C31.2504 53.4163 32.1835 56.7675 33.9486 59.6924C35.7137 62.6172 38.2438 65.0047 41.2661 66.5972C44.2884 68.1897 47.6881 68.9268 51.0986 68.7291C54.5091 68.5313 57.8008 67.4062 60.6188 65.4751C63.4363 63.5391 65.6708 60.8697 67.0809 57.7555C68.4909 54.6413 69.0227 51.2009 68.6188 47.8063C68.5096 46.9826 68.6219 46.1446 68.9441 45.3787C69.2664 44.6128 69.7869 43.9466 70.4522 43.4487C71.1175 42.9509 71.9035 42.6393 72.7292 42.5462C73.555 42.4531 74.3906 42.5817 75.1501 42.9188C75.9094 43.2516 76.5669 43.7798 77.0555 44.4496C77.544 45.1193 77.8463 45.9067 77.9313 46.7313C78.6104 52.532 77.4669 58.4001 74.6595 63.5214C71.8521 68.6426 67.5201 72.7629 62.2647 75.3103C57.0093 77.8577 51.0912 78.7059 45.3319 77.7371C39.5726 76.7684 34.2576 74.0308 30.1248 69.9042C25.992 65.7777 23.2463 60.4669 22.2688 54.7091C21.2913 48.9512 22.1305 43.0318 24.67 37.7726C27.2094 32.5133 31.3231 28.175 36.44 25.3599C41.557 22.5447 47.4234 21.3923 53.2251 22.0626C53.8463 22.1202 54.4497 22.3013 55.0001 22.5952C55.5504 22.8891 56.0365 23.2899 56.43 23.7741C56.8234 24.2583 57.1162 24.8161 57.2912 25.415C57.4663 26.0138 57.52 26.6415 57.4493 27.2614C57.3786 27.8813 57.1848 28.4808 56.8794 29.0248C56.574 29.5688 56.163 30.0464 55.6706 30.4295C55.1782 30.8127 54.6143 31.0936 54.0119 31.256C53.4095 31.4184 52.7808 31.4589 52.1626 31.3751C49.5354 31.0701 46.8735 31.3243 44.3515 32.121C41.8296 32.9178 39.5048 34.239 37.5297 35.9981C35.5547 37.7571 33.9741 39.914 32.8918 42.3272C31.8095 44.7404 31.25 47.3553 31.2501 50.0001Z" fill="#0A5D00"/>
</svg>
