<svg width="37" height="36" viewBox="0 0 37 36" fill="none" xmlns="http://www.w3.org/2000/svg">
<path d="M18.5001 12.012C15.2028 12.012 12.512 14.7028 12.512 18.0001C12.512 21.2973 15.2028 23.9881 18.5001 23.9881C21.7974 23.9881 24.4882 21.2973 24.4882 18.0001C24.4882 14.7028 21.7974 12.012 18.5001 12.012ZM36.4599 18.0001C36.4599 15.5204 36.4823 13.0632 36.3431 10.588C36.2038 7.71296 35.5479 5.16139 33.4456 3.05905C31.3388 0.952215 28.7917 0.300848 25.9167 0.16159C23.437 0.0223322 20.9798 0.0447932 18.5046 0.0447932C16.0249 0.0447932 13.5677 0.0223322 11.0925 0.16159C8.21747 0.300848 5.66591 0.956707 3.56357 3.05905C1.45673 5.16589 0.805364 7.71296 0.666107 10.588C0.526849 13.0676 0.54931 15.5249 0.54931 18.0001C0.54931 20.4753 0.526849 22.937 0.666107 25.4122C0.805364 28.2872 1.46122 30.8387 3.56357 32.9411C5.6704 35.0479 8.21747 35.6993 11.0925 35.8385C13.5722 35.9778 16.0294 35.9553 18.5046 35.9553C20.9843 35.9553 23.4415 35.9778 25.9167 35.8385C28.7917 35.6993 31.3433 35.0434 33.4456 32.9411C35.5524 30.8342 36.2038 28.2872 36.3431 25.4122C36.4868 22.937 36.4599 20.4798 36.4599 18.0001ZM18.5001 27.2135C13.4015 27.2135 9.28661 23.0987 9.28661 18.0001C9.28661 12.9014 13.4015 8.78659 18.5001 8.78659C23.5987 8.78659 27.7136 12.9014 27.7136 18.0001C27.7136 23.0987 23.5987 27.2135 18.5001 27.2135ZM28.0909 10.561C26.9005 10.561 25.9392 9.59968 25.9392 8.40925C25.9392 7.21882 26.9005 6.25749 28.0909 6.25749C29.2813 6.25749 30.2427 7.21882 30.2427 8.40925C30.243 8.69192 30.1876 8.97188 30.0796 9.23311C29.9716 9.49433 29.8131 9.73168 29.6132 9.93156C29.4133 10.1314 29.176 10.2899 28.9148 10.3979C28.6536 10.5059 28.3736 10.5614 28.0909 10.561Z" fill="#1F1F1F"/>
</svg>
