<svg width="44" height="38" viewBox="0 0 44 38" fill="none" xmlns="http://www.w3.org/2000/svg">
<path d="M39.0801 9.47028C39.1073 9.88588 39.1073 10.3016 39.1073 10.7172C39.1073 23.3937 30.24 38 14.033 38C9.03998 38 4.40168 36.4265 0.5 33.6954C1.20942 33.7844 1.89146 33.8141 2.62817 33.8141C6.74804 33.8141 10.5406 32.3 13.5692 29.7172C9.69481 29.6281 6.44796 26.8672 5.32929 23.0672C5.87502 23.1562 6.42067 23.2156 6.9937 23.2156C7.78492 23.2156 8.57622 23.0968 9.31285 22.8891C5.27478 21.9984 2.24613 18.139 2.24613 13.4781V13.3594C3.41931 14.0719 4.78364 14.5172 6.2296 14.5765C3.85586 12.8546 2.30072 9.91558 2.30072 6.59056C2.30072 4.80934 2.73718 3.17653 3.50119 1.75152C7.83942 7.57026 14.3604 11.3702 21.6725 11.7859C21.5362 11.0734 21.4543 10.3313 21.4543 9.58908C21.4543 4.30464 25.3832 0 30.2671 0C32.8045 0 35.0964 1.15781 36.7062 3.02812C38.6979 2.61252 40.6078 1.81092 42.2995 0.712505C41.6446 2.93912 40.2532 4.80943 38.4251 5.99685C40.1986 5.78914 41.9176 5.25465 43.5 4.51253C42.2997 6.41245 40.799 8.10457 39.0801 9.47028Z" fill="#1F1F1F"/>
</svg>
